<svg xmlns="http://www.w3.org/2000/svg" viewBox="0 0 24 24" fill="none" shape-rendering="auto"><metadata xmlns:rdf="http://www.w3.org/1999/02/22-rdf-syntax-ns#" xmlns:xsi="http://www.w3.org/2001/XMLSchema-instance" xmlns:dc="http://purl.org/dc/elements/1.1/" xmlns:dcterms="http://purl.org/dc/terms/"><rdf:RDF><rdf:Description><dc:title>Bootstrap Icons</dc:title><dc:creator>The Bootstrap Authors</dc:creator><dc:source xsi:type="dcterms:URI">https://github.com/twbs/icons</dc:source><dcterms:license xsi:type="dcterms:URI">https://github.com/twbs/icons/blob/main/LICENSE</dcterms:license><dc:rights>„Bootstrap Icons” (https://github.com/twbs/icons) by „The Bootstrap Authors”, licensed under „MIT” (https://github.com/twbs/icons/blob/main/LICENSE)</dc:rights></rdf:Description></rdf:RDF></metadata><mask id="viewboxMask"><rect width="24" height="24" rx="0" ry="0" x="0" y="0" fill="#fff" /></mask><g mask="url(#viewboxMask)"><rect fill="#ffab91" width="24" height="24" x="0" y="0" /><g transform="translate(4 4)"><path d="M8 16a.5.5 0 0 1-.5-.5v-1.293l-.646.647a.5.5 0 1 1-.707-.708L7.5 12.793v-1.086l-.646.647a.5.5 0 0 1-.707-.708L7.5 10.293V8.866l-1.236.713-.495 1.85a.5.5 0 1 1-.966-.26l.237-.882-.94.542-.496 1.85a.5.5 0 1 1-.966-.26l.237-.882-1.12.646a.5.5 0 0 1-.5-.866l1.12-.646-.884-.237a.501.501 0 0 1 .26-.966l1.848.495.94-.542-.882-.237a.5.5 0 1 1 .258-.966l1.85.495L7 8l-1.236-.713-1.849.495a.5.5 0 1 1-.258-.966l.883-.237-.94-.542-1.85.495a.5.5 0 0 1-.258-.966l.883-.237-1.12-.646a.5.5 0 1 1 .5-.866l1.12.646-.237-.883a.5.5 0 0 1 .966-.258l.495 1.849.94.542-.236-.883a.5.5 0 0 1 .966-.258l.495 1.849 1.236.713V5.707L6.147 4.354a.5.5 0 1 1 .707-.708l.646.647V3.207L6.147 1.854a.5.5 0 1 1 .707-.708l.646.647V.5a.5.5 0 0 1 1 0v1.293l.647-.647a.5.5 0 0 1 .707.708L8.5 3.207v1.086l.647-.647a.5.5 0 0 1 .707.708L8.5 5.707v1.427l1.236-.713.495-1.85a.501.501 0 0 1 .966.26l-.236.882.94-.542.495-1.85a.5.5 0 1 1 .966.26l-.236.882 1.12-.646a.5.5 0 0 1 .5.866l-1.12.646.883.237a.5.5 0 1 1-.26.966l-1.848-.495-.94.542.883.237a.5.5 0 1 1-.26.966l-1.848-.495L9 8l1.236.713 1.849-.495a.5.5 0 0 1 .259.966l-.883.237.94.542 1.849-.495a.5.5 0 0 1 .259.966l-.883.237 1.12.646a.5.5 0 0 1-.5.866l-1.12-.646.236.883a.5.5 0 1 1-.966.258l-.495-1.849-.94-.542.236.883a.5.5 0 0 1-.966.258L9.736 9.58 8.5 8.866v1.427l1.354 1.353a.5.5 0 0 1-.707.708l-.647-.647v1.086l1.354 1.353a.5.5 0 0 1-.707.708l-.647-.647V15.5a.5.5 0 0 1-.5.5Z" fill="#fff"/></g></g></svg>